<?xml version="1.0" standalone="no"?>
<!DOCTYPE svg PUBLIC "-//W3C//DTD SVG 20010904//EN"
 "http://www.w3.org/TR/2001/REC-SVG-20010904/DTD/svg10.dtd">
<svg version="1.0" xmlns="http://www.w3.org/2000/svg"
 width="512.000000pt" height="512.000000pt" viewBox="0 0 512.000000 512.000000"
 preserveAspectRatio="xMidYMid meet">

<g transform="translate(0.000000,512.000000) scale(0.100000,-0.100000)"
fill="#000000" stroke="none">
<path d="M2459 5107 c-140 -40 -262 -178 -276 -313 l-6 -54 -672 -2 -673 -3
-38 -30 c-20 -17 -45 -46 -55 -65 -18 -33 -19 -112 -19 -2270 0 -2158 1 -2237
19 -2270 10 -19 35 -48 55 -65 l38 -30 1716 -3 c1659 -2 1718 -2 1752 16 19
11 48 36 65 56 l30 38 3 1161 c2 870 0 1168 -9 1184 -18 33 -64 46 -100 28
-16 -9 -30 -17 -31 -18 -2 -1 -5 -522 -8 -1157 l-5 -1155 -1685 0 -1685 0 0
2215 0 2215 378 3 377 2 0 -75 0 -75 -280 0 -281 0 -24 -25 -25 -24 0 -2024 0
-2024 23 -21 c22 -21 32 -22 216 -22 116 0 200 4 212 11 28 15 41 53 28 86
-18 48 -33 52 -186 53 l-143 0 0 1920 0 1920 230 0 230 0 0 -100 c0 -71 5
-110 15 -130 32 -61 22 -60 615 -60 527 0 540 0 560 20 11 11 20 27 20 35 0
12 17 15 98 15 l97 -1 20 -32 20 -32 163 -3 c234 -4 252 10 252 188 l0 100
230 0 230 0 0 -1520 0 -1520 -375 0 -376 0 -24 -25 -25 -24 0 -376 0 -375
-697 0 c-557 -1 -701 -3 -715 -14 -42 -32 -42 -103 1 -125 13 -8 260 -11 768
-11 l748 0 422 423 423 422 0 1623 0 1623 -25 24 -24 25 -281 0 -280 0 0 75 0
75 378 -2 377 -3 5 -930 c3 -511 6 -931 8 -932 1 -1 15 -9 31 -18 34 -17 74
-7 97 23 11 14 13 200 14 947 0 1045 6 965 -74 1030 l-38 30 -673 3 -672 2 -6
54 c-12 114 -108 240 -223 293 -67 30 -185 40 -255 20z m1381 -4010 c0 -1
-121 -124 -270 -272 l-270 -270 0 273 0 272 270 0 c149 0 270 -1 270 -3z"/>
<path d="M2114 3612 c-8 -5 -299 -333 -321 -361 -2 -3 -49 41 -106 96 -58 57
-115 105 -130 108 -53 14 -104 -43 -85 -96 10 -30 274 -283 305 -293 30 -9 60
8 109 63 360 403 372 421 321 469 -23 22 -71 29 -93 14z"/>
<path d="M2405 3395 c-32 -31 -33 -74 -2 -103 l23 -22 560 0 561 0 21 23 c29
31 28 72 -3 102 l-24 25 -556 0 -556 0 -24 -25z"/>
<path d="M2123 2734 c-7 -3 -78 -80 -159 -172 -81 -92 -153 -173 -160 -181
-11 -12 -30 2 -116 84 -57 53 -113 101 -125 106 -47 18 -93 -18 -93 -72 0 -35
8 -45 140 -171 78 -73 149 -137 160 -142 10 -5 29 -6 42 -3 14 4 95 87 198
203 206 233 220 251 220 281 0 47 -62 85 -107 67z"/>
<path d="M2405 2515 c-14 -13 -25 -36 -25 -50 0 -14 11 -37 25 -50 l24 -25
556 0 556 0 24 25 c14 13 25 36 25 50 0 14 -11 37 -25 50 l-24 25 -556 0 -556
0 -24 -25z"/>
<path d="M1555 1835 l-25 -24 0 -259 c0 -257 0 -259 23 -280 23 -21 30 -22
283 -22 259 0 261 0 282 23 21 23 22 30 22 281 l0 257 -25 24 -24 25 -256 0
-256 0 -24 -25z m435 -280 l0 -155 -155 0 -155 0 0 155 0 155 155 0 155 0 0
-155z"/>
<path d="M2405 1605 c-32 -31 -33 -74 -2 -103 23 -22 29 -22 318 -22 319 0
330 2 343 55 7 27 -7 62 -33 82 -12 9 -94 12 -309 13 l-293 0 -24 -25z"/>
<path d="M3299 1617 c-26 -20 -40 -55 -33 -82 11 -46 38 -55 164 -55 109 0
118 2 138 23 29 31 28 72 -3 102 -23 24 -30 25 -137 25 -73 -1 -119 -5 -129
-13z"/>
</g>
</svg>
